<svg width="16" height="16" viewBox="0 0 16 16" fill="none" xmlns="http://www.w3.org/2000/svg">
<path d="M8 4.25C7.80109 4.25 7.61033 4.32902 7.46967 4.46967C7.32902 4.61032 7.25 4.80109 7.25 5V8C7.25 8.19891 7.32902 8.38968 7.46967 8.53033C7.61033 8.67098 7.80109 8.75 8 8.75C8.19892 8.75 8.38968 8.67098 8.53033 8.53033C8.67099 8.38968 8.75 8.19891 8.75 8V5C8.75 4.80109 8.67099 4.61032 8.53033 4.46967C8.38968 4.32902 8.19892 4.25 8 4.25ZM8.69 10.715C8.67359 10.6672 8.65089 10.6218 8.6225 10.58L8.5325 10.4675C8.42704 10.3634 8.29311 10.2929 8.14761 10.2649C8.00212 10.2369 7.85159 10.2526 7.715 10.31C7.62412 10.348 7.5404 10.4013 7.4675 10.4675C7.39799 10.5376 7.343 10.6207 7.30568 10.7121C7.26835 10.8034 7.24943 10.9013 7.25 11C7.25119 11.098 7.27157 11.1948 7.31 11.285C7.34369 11.3781 7.39743 11.4626 7.46742 11.5326C7.53741 11.6026 7.62193 11.6563 7.715 11.69C7.80478 11.7297 7.90185 11.7502 8 11.7502C8.09816 11.7502 8.19523 11.7297 8.285 11.69C8.37808 11.6563 8.4626 11.6026 8.53259 11.5326C8.60258 11.4626 8.65632 11.3781 8.69 11.285C8.72843 11.1948 8.74882 11.098 8.75 11C8.75369 10.9501 8.75369 10.8999 8.75 10.85C8.73709 10.8022 8.71685 10.7566 8.69 10.715ZM8 0.5C6.51664 0.5 5.0666 0.939867 3.83323 1.76398C2.59986 2.58809 1.63856 3.75943 1.07091 5.12987C0.50325 6.50032 0.354725 8.00832 0.644114 9.46318C0.933503 10.918 1.64781 12.2544 2.6967 13.3033C3.7456 14.3522 5.08197 15.0665 6.53683 15.3559C7.99168 15.6453 9.49968 15.4968 10.8701 14.9291C12.2406 14.3614 13.4119 13.4001 14.236 12.1668C15.0601 10.9334 15.5 9.48336 15.5 8C15.5 7.01509 15.306 6.03982 14.9291 5.12987C14.5522 4.21993 13.9997 3.39314 13.3033 2.6967C12.6069 2.00026 11.7801 1.44781 10.8701 1.0709C9.96019 0.693993 8.98492 0.5 8 0.5ZM8 14C6.81332 14 5.65328 13.6481 4.66658 12.9888C3.67989 12.3295 2.91085 11.3925 2.45673 10.2961C2.0026 9.19974 1.88378 7.99334 2.11529 6.82946C2.3468 5.66557 2.91825 4.59647 3.75736 3.75736C4.59648 2.91824 5.66558 2.3468 6.82946 2.11529C7.99335 1.88378 9.19975 2.0026 10.2961 2.45672C11.3925 2.91085 12.3295 3.67988 12.9888 4.66658C13.6481 5.65327 14 6.81331 14 8C14 9.5913 13.3679 11.1174 12.2426 12.2426C11.1174 13.3679 9.5913 14 8 14Z" fill="#DBA50C"/>
</svg>
