<svg width="16" height="16" viewBox="0 0 16 16" fill="none" xmlns="http://www.w3.org/2000/svg">
<path d="M10.7829 5.21762C10.7131 5.14732 10.6302 5.09153 10.5388 5.05345C10.4474 5.01538 10.3494 4.99577 10.2504 4.99577C10.1514 4.99577 10.0533 5.01538 9.96193 5.05345C9.87054 5.09153 9.78759 5.14732 9.71786 5.21762L8.00036 6.94262L6.28286 5.21762C6.14164 5.07639 5.95009 4.99705 5.75036 4.99705C5.55064 4.99705 5.35909 5.07639 5.21786 5.21762C5.07664 5.35885 4.9973 5.55039 4.9973 5.75012C4.9973 5.94985 5.07664 6.14139 5.21786 6.28262L6.94286 8.00012L5.21786 9.71762C5.14757 9.78734 5.09177 9.87029 5.0537 9.96169C5.01562 10.0531 4.99602 10.1511 4.99602 10.2501C4.99602 10.3491 5.01562 10.4472 5.0537 10.5386C5.09177 10.6299 5.14757 10.7129 5.21786 10.7826C5.28759 10.8529 5.37054 10.9087 5.46193 10.9468C5.55333 10.9849 5.65136 11.0045 5.75036 11.0045C5.84937 11.0045 5.9474 10.9849 6.0388 10.9468C6.13019 10.9087 6.21314 10.8529 6.28286 10.7826L8.00036 9.05762L9.71786 10.7826C9.78759 10.8529 9.87054 10.9087 9.96193 10.9468C10.0533 10.9849 10.1514 11.0045 10.2504 11.0045C10.3494 11.0045 10.4474 10.9849 10.5388 10.9468C10.6302 10.9087 10.7131 10.8529 10.7829 10.7826C10.8532 10.7129 10.909 10.6299 10.947 10.5386C10.9851 10.4472 11.0047 10.3491 11.0047 10.2501C11.0047 10.1511 10.9851 10.0531 10.947 9.96169C10.909 9.87029 10.8532 9.78734 10.7829 9.71762L9.05786 8.00012L10.7829 6.28262C10.8532 6.2129 10.909 6.12995 10.947 6.03855C10.9851 5.94716 11.0047 5.84913 11.0047 5.75012C11.0047 5.65111 10.9851 5.55308 10.947 5.46169C10.909 5.37029 10.8532 5.28734 10.7829 5.21762ZM13.3029 2.69762C12.611 1.98129 11.7834 1.40993 10.8684 1.01686C9.95337 0.623793 8.96922 0.416896 7.97337 0.408242C6.97753 0.399589 5.98993 0.589351 5.06821 0.966458C4.14649 1.34356 3.3091 1.90046 2.6049 2.60466C1.90071 3.30885 1.34381 4.14624 0.966702 5.06797C0.589595 5.98969 0.399833 6.97728 0.408486 7.97313C0.41714 8.96897 0.624037 9.95312 1.0171 10.8682C1.41017 11.7832 1.98154 12.6108 2.69786 13.3026C3.38972 14.0189 4.2173 14.5903 5.13233 14.9834C6.04736 15.3764 7.03151 15.5833 8.02736 15.592C9.0232 15.6007 10.0108 15.4109 10.9325 15.0338C11.8542 14.6567 12.6916 14.0998 13.3958 13.3956C14.1 12.6914 14.6569 11.854 15.034 10.9323C15.4111 10.0106 15.6009 9.02296 15.5922 8.02711C15.5836 7.03127 15.3767 6.04712 14.9836 5.13209C14.5906 4.21706 14.0192 3.38947 13.3029 2.69762ZM12.2454 12.2451C11.2644 13.2272 9.97327 13.8387 8.59196 13.9756C7.21065 14.1125 5.82462 13.7662 4.67001 12.9957C3.51539 12.2252 2.66363 11.0783 2.25984 9.75023C1.85606 8.42219 1.92522 6.99523 2.45555 5.71246C2.98588 4.42969 3.94457 3.37048 5.16828 2.71529C6.392 2.0601 7.80502 1.84947 9.16662 2.11928C10.5282 2.38908 11.7541 3.12264 12.6355 4.19497C13.5169 5.26729 13.9993 6.61205 14.0004 8.00012C14.003 8.78859 13.8493 9.56975 13.5481 10.2984C13.2468 11.0271 12.804 11.6887 12.2454 12.2451Z" fill="#DB3D5E"/>
</svg>
